<svg xmlns="http://www.w3.org/2000/svg" width="182" height="56" fill="none"><path fill-rule="evenodd" clip-rule="evenodd" d="M38.742 26.9a25.35 25.35 0 0 0-.567-.421c-.192-.14-.384-.28-.566-.42a12.969 12.969 0 0 0-2.227-5.444c0 .72-.081 2.001-.283 3.682a85.68 85.68 0 0 0-.054.376c-.065.463-.135.964-.23 1.466a46.103 46.103 0 0 1-1.012 4.323c-.122.44-.243.88-.405 1.32v-1.08c.04-.92.04-1.841.04-2.762 0-.92 0-1.841-.04-2.722 0-.68-.04-1.401-.08-2.081-.082-1.762-.244-3.443-.405-5.084 0 0-.041-.36-.081-.52l-.122-.841 2.631-.88c.81 1.44 2.308 2.481 4.049 2.641.08 0 .172.01.263.02.09.01.182.02.263.02 2.51 0 4.615-1.721 5.141-4.043.081-.36.122-.76.122-1.16 0-.36-.04-.721-.122-1.041-.364-1.802-1.7-3.283-3.481-3.883-.527-.16-1.093-.28-1.7-.28-2.915 0-5.263 2.321-5.263 5.204 0 .32.04.64.08.96-.53.175-1.06.371-1.606.573-.204.075-.41.152-.62.228C31.05 6.124 28.177 0 24.897 0c-3.279 0-6.153 6.084-7.57 15.01C8.826 11.769 2.065 11.169.405 13.97c-1.66 2.802 2.227 8.286 9.352 14.01C2.632 33.664-1.255 39.108.365 41.95c1.66 2.842 8.42 2.242 16.962-1C18.744 49.875 21.618 56 24.897 56c3.28 0 6.153-6.084 7.57-15.01 8.502 3.242 15.262 3.842 16.922 1.04 1.74-2.882-2.186-8.366-9.27-14.05 7.124-5.684 11.01-11.128 9.391-13.97-.566-.96-1.7-1.521-3.279-1.721.081.4.162.8.162 1.24 0 .481-.08.961-.202 1.402.283.16.485.36.607.64 1.255 2.202-2.065 6.605-8.056 11.328ZM9.959 28.14a.867.867 0 0 0-.202-.16c.04.04.121.12.202.16Zm14.898-.88h.607c.445 0 .769-.08.93-.28.163-.2.284-.521.325-1.041 0-.106.011-.2.022-.29.01-.08.018-.155.018-.23v-.241a.54.54 0 0 0-.243-.44c-.162-.12-.404-.16-.728-.16h-.648l-.284 2.681Zm13.318-15.251-.243 2.281c0 .2 0 .36.162.48v.2c0 .24.04.441.122.601.04.16.162.32.283.44.162.12.324.2.526.28.203.08.446.12.729.12.324 0 .648-.08.89-.16.244-.08.446-.2.608-.4.162-.16.283-.36.364-.6.081-.24.122-.52.162-.8l.04-.521h-1.254l-.081.6c-.04.08-.04.2-.04.24 0 .017-.008.04-.016.068-.011.039-.025.086-.025.133a.556.556 0 0 0-.037.102c-.012.04-.022.075-.044.098-.04.08-.081.12-.122.16-.031.063-.063.076-.114.098a.518.518 0 0 1-.29.062c-.243 0-.365-.08-.446-.24a.995.995 0 0 1-.08-.4v-.32l.283-2.843c0-.04.01-.08.02-.12.01-.04.02-.08.02-.12 0-.08 0-.16.04-.24a.556.556 0 0 0 .037-.102c.012-.04.022-.076.045-.098.04-.08.08-.12.121-.16.032-.063.063-.077.114-.099l.048-.021c.08-.04.162-.04.243-.04h.162c.02 0 .04.01.06.02.02.01.04.02.061.02l.081.08c0 .02.01.03.02.04.01.01.02.02.02.04.041.04.041.08.041.12v.6l-.08.6H41.9l.08-.56v-.36c0-.16 0-.28-.04-.4-.04-.2-.121-.4-.243-.56a.893.893 0 0 0-.526-.4 2.72 2.72 0 0 0-.85-.121c-.365 0-.688.08-.931.16-.284.12-.486.24-.648.44-.162.2-.283.44-.364.68-.122.281-.162.561-.203.922ZM3.2 15.45c1.295-2.162 6.8-1.561 13.966 1.2-.081.481-.121.922-.162 1.402a13.11 13.11 0 0 0-3.643 4.603c.647-.36 1.78-.92 3.36-1.56.335-.154.702-.29 1.082-.432.217-.08.438-.162.658-.25 1.255-.44 2.713-.92 4.291-1.32.223-.06.446-.11.668-.16.223-.05.446-.1.668-.16 0 0 .284-.16.891-.44-.607.32-1.215.64-1.862.96-.127.063-.254.131-.384.202-.2.109-.407.22-.628.318a2.37 2.37 0 0 0-.284.16c-.202.1-.394.21-.587.32-.192.11-.384.22-.587.32-.313.187-.627.367-.939.546-.492.282-.978.561-1.45.856a2.73 2.73 0 0 0-.444.28l-.365.24-.971.6a72.62 72.62 0 0 0-4.21 2.883c-.284.2-.567.4-.81.6-.02 0-.03.01-.04.02-.01.01-.02.02-.041.02-.04.04-.081.07-.121.1-.041.03-.082.06-.122.1-5.91-4.763-9.23-9.206-7.934-11.408Zm25.382 9.967c0 .16 0 .36-.04.56-.041.48-.163.921-.324 1.241-.162.36-.365.6-.648.801-.284.2-.567.36-.89.44-.325.08-.689.12-1.094.12h-.89l-.446 4.163h-1.943l1.012-9.526h2.955c1.58 0 2.308.72 2.308 2.201Zm-12.064-.26c.01-.01.02-.02.04-.02-.04 0-.08.04-.08.04a.556.556 0 0 0-.162.12c.08-.04.121-.08.162-.12.02 0 .03-.01.04-.02Zm8.461 27.68c-2.55 0-4.777-5.084-5.95-12.57.202-.08.414-.17.627-.26.212-.09.425-.18.627-.26 1.457.56 3.036.881 4.696.881.405 0 .81 0 1.214-.04-.647-.4-1.74-1.08-3.076-2.081-.192-.156-.399-.31-.614-.473H22.5a20.786 20.786 0 0 1-.883-.688 42.626 42.626 0 0 1-3.28-3.003c-.323-.32-.647-.64-.93-1a66.683 66.683 0 0 0 1.032.62c.03.02.06.04.101.06.423.27.86.526 1.304.784.28.163.56.327.842.497.81.48 1.62.92 2.429 1.321.303.16.617.32.931.48.314.16.627.32.931.48.931.481 1.862.921 2.793 1.362.304.14.617.28.931.42.314.14.628.28.931.42l.35.136c.305.117.625.24.946.385-1.174 7.485-3.4 12.529-5.951 12.529Zm-4.696-13.09c-.153-.063-.305-.125-.458-.19.148.066.3.13.458.19Zm-.458-.19a9.283 9.283 0 0 1-1-.49l.29.145c.236.118.467.235.71.344Zm-1.91-.671h-.001c-.273.11-.53.216-.789.301C9.96 41.91 4.413 42.55 3.118 40.348c-1.255-2.2 2.064-6.604 8.056-11.327.182.14.374.28.566.42.193.14.385.28.567.42a12.47 12.47 0 0 0 4.655 7.966c.405.32.85.64 1.296.92l-.344.14ZM31.01 16.252c.03.2.06.4.08.6 0 .036.009.072.018.112a.717.717 0 0 1 .023.168c0-.12 0-.2-.04-.28-.04-.44-.081-.84-.122-1.24-1.174-7.486-3.4-12.57-5.95-12.57-2.55 0-4.777 5.044-5.951 12.53-.081.4-.162.8-.203 1.24.486-.24.972-.48 1.498-.68a13.48 13.48 0 0 1 4.615-.841c1.66 0 3.239.32 4.696.88.202-.08.415-.17.627-.26.213-.09.426-.18.628-.26.02.2.05.4.08.6Zm15.747 24.177c-1.295 2.161-6.8 1.561-13.966-1.201.081-.48.122-.92.162-1.401a12.73 12.73 0 0 0 4.655-7.926c.081-.52.122-1.08.162-1.64.228.197.477.374.717.546.1.072.2.143.295.214 5.951 4.803 9.27 9.206 7.975 11.408Z" fill="url(#a)"/><defs><linearGradient id="a" x1="49.893" y1="-.036" x2=".056" y2="-.036" gradientUnits="userSpaceOnUse"><stop stop-color="#4252D1"/><stop offset="1" stop-color="#609BDB"/></linearGradient></defs></svg>